<svg xmlns="http://www.w3.org/2000/svg" viewBox="0 0 147.77 45.28"><defs><style>.cls-1{fill:#211915;}</style></defs><title>bg_title2</title><g id="Capa_2" data-name="Capa 2"><g id="Capa_1-2" data-name="Capa 1"><path class="cls-1" d="M6.47,20.31a6.46,6.46,0,0,1-3.1-.68,5.17,5.17,0,0,1-2-1.8A7.47,7.47,0,0,1,.32,15.29,13.17,13.17,0,0,1,0,12.41V4.58H.77v7.83A13,13,0,0,0,1,15.05,7.22,7.22,0,0,0,2,17.37,4.53,4.53,0,0,0,3.7,19a5.8,5.8,0,0,0,2.75.59A5.69,5.69,0,0,0,9.23,19,4.71,4.71,0,0,0,11,17.31a7.32,7.32,0,0,0,.9-2.31,12.44,12.44,0,0,0,.26-2.59V4.58h.75v7.83a13.25,13.25,0,0,1-.33,3,7.48,7.48,0,0,1-1.08,2.53,5.42,5.42,0,0,1-2,1.75A6.47,6.47,0,0,1,6.47,20.31ZM6.71,2l-.53-.28L7.55,0h1Z"/><path class="cls-1" d="M25.61,20.2h-.75V13.83a6.78,6.78,0,0,0-.67-3.43,2.31,2.31,0,0,0-2.12-1.09,4.49,4.49,0,0,0-2,.49,5.76,5.76,0,0,0-1.73,1.34,5.17,5.17,0,0,0-1.06,1.92V20.2H16.5V8.78h.73v2.85a5.11,5.11,0,0,1,1.24-1.58A5.9,5.9,0,0,1,20.22,9a5.21,5.21,0,0,1,2-.39,3.38,3.38,0,0,1,1.55.33,2.64,2.64,0,0,1,1.05,1,4.49,4.49,0,0,1,.61,1.6,11.36,11.36,0,0,1,.2,2.24Z"/><path class="cls-1" d="M29,6V4.14h.75V6ZM29,20.2V8.76h.75V20.2Z"/><path class="cls-1" d="M38.15,20.42A5,5,0,0,1,36,19.94a5.53,5.53,0,0,1-1.78-1.29,5.79,5.79,0,0,1-1.2-1.9,6.12,6.12,0,0,1-.43-2.31,6,6,0,0,1,.73-3,5.5,5.5,0,0,1,2-2.1,5.3,5.3,0,0,1,2.85-.78,5.15,5.15,0,0,1,2.66.69,4.46,4.46,0,0,1,1.74,1.91l-.73.26a3.82,3.82,0,0,0-1.53-1.58,4.57,4.57,0,0,0-4.61.11A4.89,4.89,0,0,0,34,11.83a5.31,5.31,0,0,0-.64,2.61A5.43,5.43,0,0,0,34,17.08,5.26,5.26,0,0,0,35.69,19a4.34,4.34,0,0,0,2.39.71,4.39,4.39,0,0,0,1.67-.32,4.65,4.65,0,0,0,1.41-.83,2.44,2.44,0,0,0,.77-1.11l.75.22a3.36,3.36,0,0,1-1,1.41,5,5,0,0,1-1.61,1A5.37,5.37,0,0,1,38.15,20.42Z"/><path class="cls-1" d="M44.31,16.93a2.62,2.62,0,0,1,.61-1.74A4.22,4.22,0,0,1,46.6,14a6.6,6.6,0,0,1,2.46-.42,11.54,11.54,0,0,1,1.91.16,10.39,10.39,0,0,1,1.79.45V13a3.74,3.74,0,0,0-1-2.69,3.49,3.49,0,0,0-2.63-1,4.9,4.9,0,0,0-1.77.36,8.54,8.54,0,0,0-1.91,1l-.37-.55A10.16,10.16,0,0,1,47.23,9a5.67,5.67,0,0,1,2-.38,4.2,4.2,0,0,1,3.15,1.2A4.48,4.48,0,0,1,53.5,13v6a.65.65,0,0,0,.1.37.38.38,0,0,0,.3.12v.66h-.25a.43.43,0,0,1-.17,0,.71.71,0,0,1-.48-.33,1.06,1.06,0,0,1-.2-.57v-1a5.19,5.19,0,0,1-2,1.57,6.38,6.38,0,0,1-2.68.57A4.05,4.05,0,0,1,46.16,20a3.47,3.47,0,0,1-1.36-1.27A3.27,3.27,0,0,1,44.31,16.93Zm8,1a2.56,2.56,0,0,0,.3-.52,1.42,1.42,0,0,0,.1-.45V14.87A10,10,0,0,0,51,14.38a10.43,10.43,0,0,0-1.88-.17,5.27,5.27,0,0,0-2.94.74A2.23,2.23,0,0,0,45,16.89a2.71,2.71,0,0,0,.41,1.44,3,3,0,0,0,1.12,1.05,3.19,3.19,0,0,0,1.6.4,5.81,5.81,0,0,0,2.49-.52A4,4,0,0,0,52.36,17.92Z"/><path class="cls-1" d="M60.39,20.42A6.36,6.36,0,0,1,57.94,20a5.25,5.25,0,0,1-2-1.39l.39-.53a6.61,6.61,0,0,0,1.89,1.3,5.34,5.34,0,0,0,2.14.42A4.51,4.51,0,0,0,63,19.08a2.18,2.18,0,0,0,1-1.89A1.63,1.63,0,0,0,63.5,16a3.38,3.38,0,0,0-1.3-.72c-.56-.18-1.25-.36-2.05-.56a17.83,17.83,0,0,1-2-.6,2.68,2.68,0,0,1-1.18-.8,2.27,2.27,0,0,1-.39-1.41A2.85,2.85,0,0,1,57.17,10,3.35,3.35,0,0,1,58.66,9a5.94,5.94,0,0,1,2.06-.35,5.63,5.63,0,0,1,2.35.46,3.23,3.23,0,0,1,1.43,1.17l-.48.42a3,3,0,0,0-1.4-1,5.58,5.58,0,0,0-2-.35A4.76,4.76,0,0,0,59,9.53a2.71,2.71,0,0,0-1.21.8,2.18,2.18,0,0,0-.46,1.44,1.67,1.67,0,0,0,.33,1.11,2.12,2.12,0,0,0,1,.63c.44.15,1,.32,1.67.49.9.22,1.67.45,2.32.67a3.82,3.82,0,0,1,1.51.89,2.15,2.15,0,0,1,.53,1.54,2.88,2.88,0,0,1-1.18,2.43A5,5,0,0,1,60.39,20.42Z"/><path class="cls-1" d="M90.89,45a1.59,1.59,0,0,1-1.5-.84,4.08,4.08,0,0,1-.46-2,6.9,6.9,0,0,1,.36-2.2q-.53,1-1.26,2.22a7.94,7.94,0,0,1-1.74,2,3.75,3.75,0,0,1-2.4.8A2.43,2.43,0,0,1,82,44.12a3.92,3.92,0,0,1-.76-2.68,8.14,8.14,0,0,1,.2-1.68,11.1,11.1,0,0,1,.6-1.92,8.88,8.88,0,0,1,1.22-2.14,7.38,7.38,0,0,1,2-1.84,4.67,4.67,0,0,1,2.6-.74,3.08,3.08,0,0,1,2.12.56,2.73,2.73,0,0,1,.72.88.4.4,0,0,1,0,.2.25.25,0,0,1-.28.28.36.36,0,0,1-.28-.16,3.48,3.48,0,0,0-1.1-1A2.24,2.24,0,0,0,88,33.64a2.63,2.63,0,0,0-1.8.76,7.9,7.9,0,0,0-1.48,1.82,20,20,0,0,0-1.08,2,11,11,0,0,0-.56,1.68,8.65,8.65,0,0,0-.32,2.28,3.65,3.65,0,0,0,.32,1.58,1.2,1.2,0,0,0,1.2.66,2.77,2.77,0,0,0,1.9-.78,9.44,9.44,0,0,0,1.54-1.82,14.91,14.91,0,0,0,1-1.84q1.88-4,3-6.24c0-.14.21-.25.46-.34a1.89,1.89,0,0,1,.7-.14c.35,0,.52.1.52.32a1.2,1.2,0,0,1-.2.44,7,7,0,0,0-.6,1.06c-.29.57-.59,1.15-.88,1.74a14.47,14.47,0,0,0-.62,1.52c-.25.69-.49,1.44-.7,2.26a8.83,8.83,0,0,0-.32,2.18,2.46,2.46,0,0,0,.24,1.14.85.85,0,0,0,.8.46,2.33,2.33,0,0,0,1-.24,9.83,9.83,0,0,0,2.36-1.58,22.22,22.22,0,0,0,2.28-2.36,23,23,0,0,0,1.8-2.46c.16-.27.31-.4.44-.4s.12.06.12.2a1.74,1.74,0,0,1-.24.6,21.09,21.09,0,0,1-1.78,2.44A22.7,22.7,0,0,1,94.75,43a10,10,0,0,1-2.42,1.64A3.78,3.78,0,0,1,90.89,45Z"/><path class="cls-1" d="M98.89,39.72c.59-1.34,1-2.3,1.32-2.9s.49-1,.58-1.14.11-.23.06-.2a4.26,4.26,0,0,0-.58.74c-.33.46-.71,1-1.12,1.6A17.46,17.46,0,0,1,98,39.36a.36.36,0,0,1-.28.16.14.14,0,0,1-.16-.16.57.57,0,0,1,.16-.36l1.88-2.82c.51-.76,1-1.56,1.52-2.38a1.07,1.07,0,0,1,1-.66l1.2,0c-.11.24-.28.64-.52,1.2l-.82,1.9c-.31.7-.59,1.4-.86,2.1.32-.51.69-1.08,1.12-1.7a15.35,15.35,0,0,1,1.44-1.8,6.81,6.81,0,0,1,1.64-1.34,3.18,3.18,0,0,1,1.56-.48,1.43,1.43,0,0,1,1.08.42,1.75,1.75,0,0,1,.4,1.26,7.5,7.5,0,0,1-.52,2.52c-.35,1-.65,1.78-.92,2.48.32-.48.77-1.1,1.34-1.84a24.42,24.42,0,0,1,1.94-2.24,13.07,13.07,0,0,1,2.16-1.84,3.83,3.83,0,0,1,2.12-.72,1.52,1.52,0,0,1,.94.28,1.06,1.06,0,0,1,.38.92,3.42,3.42,0,0,1-.4,1.44c-.32.66-.72,1.44-1.2,2.32s-.93,1.75-1.34,2.62a15.94,15.94,0,0,0-.9,2.26,1.59,1.59,0,0,0-.06.3,2.66,2.66,0,0,0,0,.3c0,.58.32.88,1,.88a3.34,3.34,0,0,0,1-.2,8.12,8.12,0,0,0,2.38-1.62,27.15,27.15,0,0,0,2.32-2.46,22.87,22.87,0,0,0,1.78-2.4c.19-.27.35-.4.48-.4s.12,0,.12.16a1.74,1.74,0,0,1-.24.6,18.53,18.53,0,0,1-1.8,2.42,26.11,26.11,0,0,1-2.4,2.42,10.32,10.32,0,0,1-2.44,1.64,7.27,7.27,0,0,1-.76.24,3.39,3.39,0,0,1-.68.08,2,2,0,0,1-1.38-.5,1.85,1.85,0,0,1-.54-1.42,5.63,5.63,0,0,1,.68-2.48,29.8,29.8,0,0,1,1.54-2.72,21.83,21.83,0,0,0,1.38-2.52,1.71,1.71,0,0,0,.16-.72c0-.51-.24-.76-.72-.76a1.85,1.85,0,0,0-1,.36,11.41,11.41,0,0,0-2.18,1.8,28.35,28.35,0,0,0-2.16,2.46,28.76,28.76,0,0,0-1.72,2.4,7.11,7.11,0,0,0-.86,1.66c0,.18-.16.48-.32.88s-.37.92-.64,1.56a5,5,0,0,0-1.52.36L104.51,42c.36-.92.73-1.86,1.1-2.82l1-2.54c.28-.74.45-1.2.5-1.38a4.23,4.23,0,0,0,.2-1c0-.51-.2-.76-.6-.76a2.57,2.57,0,0,0-1.32.52,7.38,7.38,0,0,0-1.86,1.74,24.32,24.32,0,0,0-1.78,2.54c-.77,1.22-1.48,2.45-2.12,3.68s-1.11,2.2-1.4,2.92a5.68,5.68,0,0,0-1.6.36Q97.85,42.39,98.89,39.72Z"/><path class="cls-1" d="M123.09,45.28a2.9,2.9,0,0,1-2.68-1.38,6.16,6.16,0,0,1-.84-3.26,10.47,10.47,0,0,1,.64-3.56,8.29,8.29,0,0,1,1.8-3,3.57,3.57,0,0,1,2.64-1.2c.19,0,.31,0,.36.08a3.83,3.83,0,0,1,1-.78,2.38,2.38,0,0,1,1.18-.3,2.05,2.05,0,0,1,2,1,4.84,4.84,0,0,1,.56,2.42,11.52,11.52,0,0,1-.44,3,16.5,16.5,0,0,1-1.12,3,8.14,8.14,0,0,1-1.44,2.12l.4.06.4,0a4.75,4.75,0,0,0,2.64-.78,11.25,11.25,0,0,0,2.2-1.9c.67-.75,1.28-1.48,1.84-2.2a.34.34,0,0,1,.2-.12.19.19,0,0,1,.2.16.47.47,0,0,1-.08.36l-1,1.28A16.1,16.1,0,0,1,131.81,42a10.36,10.36,0,0,1-2.08,1.48,4.86,4.86,0,0,1-2.32.6,2.91,2.91,0,0,1-.6-.06l-.6-.14a6,6,0,0,1-1.42,1A3.77,3.77,0,0,1,123.09,45.28Zm.2-.68a2.49,2.49,0,0,0,1.24-.32,8.7,8.7,0,0,0,1-.72,4,4,0,0,1-1.7-2.16,9.06,9.06,0,0,1-.54-3.12,10,10,0,0,1,.3-2.44,8.29,8.29,0,0,1,.82-2.12h-.12a1.71,1.71,0,0,0-1.26.68,6.38,6.38,0,0,0-1.1,1.78,13.89,13.89,0,0,0-.78,2.36,10.6,10.6,0,0,0-.3,2.46,5.44,5.44,0,0,0,.56,2.54A1.93,1.93,0,0,0,123.29,44.6ZM126,43.12a7.77,7.77,0,0,0,1.44-2.28,15.34,15.34,0,0,0,.86-2.72,12.51,12.51,0,0,0,.3-2.6,5.82,5.82,0,0,0-.38-2.28c-.25-.59-.63-.82-1.14-.68a3,3,0,0,0-1.72,1.16,6.4,6.4,0,0,0-1.1,2.2,9.19,9.19,0,0,0-.38,2.6,7.64,7.64,0,0,0,.5,2.76A3.32,3.32,0,0,0,126,43.12Z"/><path class="cls-1" d="M139.57,44.84a1.86,1.86,0,0,1-1.36-.52,2,2,0,0,1-.52-1.48,3,3,0,0,1,0-.42,2.65,2.65,0,0,1,.06-.42,8.31,8.31,0,0,1,1.12-2.72,19.6,19.6,0,0,0,1.44-2.64,2.43,2.43,0,0,0,.26-.66,2.78,2.78,0,0,0,.06-.54.8.8,0,0,0-.54-.84,4.76,4.76,0,0,0-1.36-.26,11.69,11.69,0,0,1-1.7-.26c-.11.32-.33.87-.66,1.66a12.77,12.77,0,0,1-1.1,2.06A15.92,15.92,0,0,1,134,39.56l-1,1.16q-.36.36-.48.36c-.08,0-.12-.06-.12-.16s.13-.32.4-.64c.16-.16.45-.52.88-1.08s.82-1.14,1.2-1.72a12.58,12.58,0,0,0,1-2c.29-.72.49-1.22.6-1.48a2.14,2.14,0,0,1-1.36-1.22,4.57,4.57,0,0,1-.48-2,3,3,0,0,1,.54-1.88,1.46,1.46,0,0,1,1.1-.72,1.05,1.05,0,0,1,.86.6,4.05,4.05,0,0,1,.38,2,8.75,8.75,0,0,1-.12,1.44q-.12.72-.24,1.2a11.68,11.68,0,0,0,2.24.18,6.5,6.5,0,0,1,1.94.2,1.07,1.07,0,0,1,.78,1.18,5.34,5.34,0,0,1-.68,2.12c-.48,1-1,2-1.48,2.92a13.89,13.89,0,0,0-1.16,2.88,1.59,1.59,0,0,0-.06.3,2.66,2.66,0,0,0,0,.3c0,.58.32.88,1,.88a3.34,3.34,0,0,0,1-.2,8.12,8.12,0,0,0,2.38-1.62,28.62,28.62,0,0,0,2.32-2.46,22.87,22.87,0,0,0,1.78-2.4c.19-.27.34-.4.48-.4s.12,0,.12.16a1.74,1.74,0,0,1-.24.6,19.49,19.49,0,0,1-1.8,2.42,26.11,26.11,0,0,1-2.4,2.42,10.32,10.32,0,0,1-2.44,1.64A3.56,3.56,0,0,1,139.57,44.84Zm-2.92-11.48c0-.14.07-.43.12-.88a13.3,13.3,0,0,0,.08-1.44,3.66,3.66,0,0,0-.2-1.4c-.14-.3-.28-.44-.44-.44s-.35.16-.5.48a2.81,2.81,0,0,0-.18,1.32,3.11,3.11,0,0,0,.48,1.86A2,2,0,0,0,136.65,33.36Z"/><path class="cls-1" d="M47.87,37.71a1.89,1.89,0,0,0,.35,0,.26.26,0,0,0,.21-.1,1.31,1.31,0,0,0,.13-.23q.09-.18.3-.66l.61-1.42-2.89-6.23h.27L49.59,35l2.61-5.93h.26l-3.71,8.46a.77.77,0,0,1-.1.18.53.53,0,0,1-.13.13.39.39,0,0,1-.16.07l-.24,0a1.06,1.06,0,0,1-.25,0Z"/><path class="cls-1" d="M59.13,35.4A2.69,2.69,0,0,1,58,35.14a3.08,3.08,0,0,1-1-.71,3.2,3.2,0,0,1-.65-1,3.29,3.29,0,0,1-.24-1.26,3.24,3.24,0,0,1,.4-1.62,3,3,0,0,1,1.08-1.14A2.83,2.83,0,0,1,59.12,29a2.7,2.7,0,0,1,1.41.37,2.3,2.3,0,0,1,.93,1l-.24.09a2.18,2.18,0,0,0-.87-.91,2.6,2.6,0,0,0-2.64.06,2.78,2.78,0,0,0-1,1.06,3,3,0,0,0-.37,1.49,3.21,3.21,0,0,0,.37,1.51,3,3,0,0,0,1,1.1,2.41,2.41,0,0,0,1.37.42,2.65,2.65,0,0,0,1-.19,2.74,2.74,0,0,0,.81-.49,1.4,1.4,0,0,0,.44-.63l.24.07a1.76,1.76,0,0,1-.51.76,2.72,2.72,0,0,1-.87.52A2.83,2.83,0,0,1,59.13,35.4Z"/><path class="cls-1" d="M65.48,35.4a2.65,2.65,0,0,1-1.15-.26,2.83,2.83,0,0,1-.95-.7,3.28,3.28,0,0,1-.63-1,3.2,3.2,0,0,1-.23-1.23,3.41,3.41,0,0,1,.23-1.24,3.5,3.5,0,0,1,.64-1,3.11,3.11,0,0,1,1-.71,2.72,2.72,0,0,1,2.28,0,3,3,0,0,1,.95.71,3.31,3.31,0,0,1,.64,1,3.22,3.22,0,0,1,.24,1.24,3.4,3.4,0,0,1-.23,1.23,3.31,3.31,0,0,1-.64,1,3,3,0,0,1-1,.7A2.65,2.65,0,0,1,65.48,35.4Zm-2.72-3.2a3.09,3.09,0,0,0,.36,1.48,2.92,2.92,0,0,0,1,1.07,2.42,2.42,0,0,0,1.36.41,2.47,2.47,0,0,0,1.37-.41,3,3,0,0,0,1-1.09,3.09,3.09,0,0,0,.38-1.49,3,3,0,0,0-.38-1.48,2.82,2.82,0,0,0-1-1.09,2.42,2.42,0,0,0-1.36-.41,2.34,2.34,0,0,0-1.35.42,3,3,0,0,0-1,1.09A3.09,3.09,0,0,0,62.76,32.2Z"/><path class="cls-1" d="M74.84,35.28H74.6V31.81a3.91,3.91,0,0,0-.38-2A1.3,1.3,0,0,0,73,29.19a2.72,2.72,0,0,0-1.17.28,3.23,3.23,0,0,0-1,.77,3,3,0,0,0-.6,1.1v3.94H70V29.05h.24v1.61a2.85,2.85,0,0,1,.69-.89,3.15,3.15,0,0,1,1-.6A2.75,2.75,0,0,1,73,29a1.78,1.78,0,0,1,.83.18,1.44,1.44,0,0,1,.58.52,2.51,2.51,0,0,1,.33.89,5.94,5.94,0,0,1,.11,1.27Z"/></g></g></svg>