<svg xmlns="http://www.w3.org/2000/svg" viewBox="0 0 101.04 117.74"><defs><style>.cls-1{fill:#212121;}</style></defs><title>CartEmpty</title><g id="Capa_2" data-name="Capa 2"><g id="Capa_1-2" data-name="Capa 1"><path class="cls-1" d="M99.92,117.74H1.12a1.11,1.11,0,0,1-.85-.4,1.14,1.14,0,0,1-.26-.9L14.12,24.66h72.8L101,116.44a1.15,1.15,0,0,1-.26.91A1.17,1.17,0,0,1,99.92,117.74ZM2,116.74H2Zm.15-1H98.89L85.2,26.66H15.84Z"/><path class="cls-1" d="M71.76,35.61h-2.2c0-24-5.34-33.41-19-33.41s-19,9.37-19,33.41h-2.2C29.28,10.32,35.44,0,50.52,0S71.76,10.32,71.76,35.61Z"/><circle class="cls-1" cx="30.38" cy="35.6" r="2.39"/><circle class="cls-1" cx="70.66" cy="35.6" r="2.39"/><circle class="cls-1" cx="30.76" cy="70.3" r="2.29"/><path class="cls-1" d="M30.76,73.09a2.79,2.79,0,1,1,2.79-2.79A2.8,2.8,0,0,1,30.76,73.09Zm0-4.58a1.79,1.79,0,1,0,1.79,1.79A1.8,1.8,0,0,0,30.76,68.51Z"/><circle class="cls-1" cx="70.28" cy="70.3" r="2.29"/><path class="cls-1" d="M70.28,73.09a2.79,2.79,0,1,1,2.8-2.79A2.79,2.79,0,0,1,70.28,73.09Zm0-4.58a1.79,1.79,0,1,0,1.8,1.79A1.79,1.79,0,0,0,70.28,68.51Z"/><path class="cls-1" d="M58.87,80.07A1,1,0,0,1,58,79.5c-.9-1.91-2.41-2.91-5.22-3.45l-.43,0a15.87,15.87,0,0,0-3.58,0l-.44,0c-2.8.54-4.31,1.54-5.21,3.45a1,1,0,1,1-1.81-.86c1.51-3.19,4.35-4.11,6.66-4.56l.58-.07a18,18,0,0,1,4,0l.58.07c2.31.45,5.15,1.37,6.66,4.56A1,1,0,0,1,59.29,80,1.06,1.06,0,0,1,58.87,80.07Z"/></g></g></svg>